<svg xmlns="http://www.w3.org/2000/svg" xmlns:xlink="http://www.w3.org/1999/xlink" viewBox="0 0 32 32"><defs><path id="a" d="M0 0h32v21.836H0z"/></defs><g fill="none" fill-rule="evenodd" transform="translate(0 5)"><mask id="b" fill="#fff"><use xlink:href="#a"/></mask><path fill="#B9D356" d="M2.34 0c1.68 0 2.52.55 2.52 1.69 0 .98-.23 2.17-.23 4.18 0 6.84 2.55 12.15 5.58 12.15a4.33 4.33 0 0 0 4.28-3.87c0-1.08-.19-2.4-.2-3.55-.01-3.48.4-6.6 2.81-6.6 2.7 0 2.52 3.26 2.52 4.7 0 2.64-.56 3.99-.56 5.08 0 1.17 2.14 3.45 3.86 3.45 1.72 0 4.66-2.38 4.66-5.59s-2.15-4.8-2.15-5.82c0-1.02.8-2.14 2.66-2.14S32 6.84 32 11.08 28.55 21.1 22.46 21.1c-4.06 0-5.82-3.34-5.82-3.34s-1.82 4.09-7.08 4.09C4.53 21.84 0 17.55 0 5.3 0 2.28.8 0 2.34 0" mask="url(#b)"/></g></svg>